# xmcd
#
# Track frame offsets: 
#        150
#        15115
#        35841
#        56976
#        78586
#        96650
#        108840
#        124433
#        140875
#        160486
#        172789
#        187707
#
# Disc length: 2742 seconds
#
# Revision: 4
# Processed by: cddbd v1.4PL0 Copyright (c) Steve Scherf et al.
# Submitted via: ExactAudioCopy v0.90b3
#
DISCID=a30ab40c
DTITLE=Pat Green and Cory Morrow - Songs We Wish We'd Written
DYEAR=2001
DGENRE=Country
TTITLE0=Are You Sure Hank Done It This Way
TTITLE1=Texas On My Mind
TTITLE2=It's A Great Day To Be Alive
TTITLE3=Paradise
TTITLE4=I'd Have To Be Crazy
TTITLE5=Ain't Leavin' Your Love
TTITLE6=Stuck In The Middle With You
TTITLE7=Live Forever
TTITLE8=Crazy Wind
TTITLE9=Red Bandana
TTITLE10=Delia's Gone
TTITLE11=Can't Find My Way Home
EXTD=YEAR: 2001 ID3G:   2
EXTT0=
EXTT1=
EXTT2=
EXTT3=
EXTT4=
EXTT5=
EXTT6=
EXTT7=
EXTT8=
EXTT9=
EXTT10=
EXTT11=
PLAYORDER=
